<svg width="1280" height="720" xmlns="http://www.w3.org/2000/svg" xmlns:xlink="http://www.w3.org/1999/xlink" overflow="hidden"><defs><clipPath id="clip0"><rect x="0" y="0" width="1280" height="720"/></clipPath></defs><g clip-path="url(#clip0)"><rect x="0" y="0" width="1280" height="720" fill="#FFFFFF"/><rect x="126" y="209" width="340" height="174" fill="#3CB4E6" fill-opacity="0.501961"/><text fill="#FFFFFF" font-family="Arial,Arial_MSFontService,sans-serif" font-weight="400" font-size="24" transform="translate(199.348 237)">Periph<tspan font-size="24" x="74.6733" y="0">A (ex ADC)</tspan></text><rect x="716" y="209" width="340" height="370" fill="#49B170" fill-opacity="0.501961"/><text fill="#FFFFFF" font-family="Arial,Arial_MSFontService,sans-serif" font-weight="400" font-size="24" transform="translate(841.697 237)">GPDMA</text><rect x="149" y="262" width="294" height="98" fill="#FFD200"/><text fill="#FFFFFF" font-family="Arial,Arial_MSFontService,sans-serif" font-weight="400" font-size="24" transform="translate(194.021 319)">Memory(register) A</text><rect x="149" y="458" width="294" height="99" fill="#8C0078"/><text fill="#FFFFFF" font-family="Arial,Arial_MSFontService,sans-serif" font-weight="400" font-size="24" transform="translate(193.358 516)">Memory(register) B</text><rect x="738" y="262" width="295" height="295" fill="#03234B"/><text fill="#FFFFFF" font-family="Arial,Arial_MSFontService,sans-serif" font-weight="400" font-size="24" transform="translate(783.027 389)">GPDMA Channel X<tspan font-size="24" x="23.7734" y="58">Transfer</tspan><tspan font-size="24" x="117.553" y="58">A</tspan><tspan font-size="24" x="138.893" y="58">to</tspan><tspan font-size="24" x="165.56" y="58">B</tspan></text><path d="M9.99981-2 219.237-1.99989C220.342-1.99989 221.237-1.10446 221.237 0.000105945 221.237 1.10468 220.342 2.00011 219.237 2.0001L9.99981 2C8.89524 2 7.99981 1.10457 7.99981 3.8309e-06 7.99981-1.10457 8.89524-2 9.99981-2ZM12 6.00001 0 0 12-5.99999Z" fill="#49B170" transform="matrix(-1 0 0 1 738.237 311)"/><rect x="519" y="216" width="189" height="61" stroke="#49B170" stroke-width="2" stroke-miterlimit="8" fill="#49B170"/><text fill="#FFFFFF" font-family="Arial,Arial_MSFontService,sans-serif" font-weight="400" font-size="24" transform="translate(528.874 255)">Operation Done</text><path d="M0 0 219.237 0.000104987" stroke="#49B170" stroke-width="4" stroke-linecap="round" stroke-miterlimit="8" fill="none" fill-rule="evenodd" transform="matrix(-1 0 0 1 738.237 277)"/><path d="M0 0 0.000104987 34.0195" stroke="#49B170" stroke-width="4" stroke-linecap="round" stroke-miterlimit="8" fill="none" fill-rule="evenodd" transform="matrix(1 0 0 -1 519 311.02)"/></g></svg>