<svg width="1280" height="720" xmlns="http://www.w3.org/2000/svg" xmlns:xlink="http://www.w3.org/1999/xlink" overflow="hidden"><defs><clipPath id="clip0"><rect x="0" y="0" width="1280" height="720"/></clipPath></defs><g clip-path="url(#clip0)"><rect x="0" y="0" width="1280" height="720" fill="#FFFFFF"/><rect x="126" y="405" width="340" height="174" fill="#3CB4E6" fill-opacity="0.501961"/><text fill="#FFFFFF" font-family="Arial,Arial_MSFontService,sans-serif" font-weight="400" font-size="24" transform="translate(174.008 433)">Periph<tspan font-size="24" x="76" y="0">B (ex UART Tx)</tspan></text><rect x="716" y="209" width="340" height="370" fill="#49B170" fill-opacity="0.501961"/><text fill="#FFFFFF" font-family="Arial,Arial_MSFontService,sans-serif" font-weight="400" font-size="24" transform="translate(841.697 237)">GPDMA</text><rect x="149" y="262" width="294" height="98" fill="#FFD200"/><text fill="#FFFFFF" font-family="Arial,Arial_MSFontService,sans-serif" font-weight="400" font-size="24" transform="translate(194.021 319)">Memory(register) A</text><rect x="149" y="458" width="294" height="99" fill="#8C0078"/><text fill="#FFFFFF" font-family="Arial,Arial_MSFontService,sans-serif" font-weight="400" font-size="24" transform="translate(193.358 516)">Memory(register) B</text><rect x="738" y="262" width="295" height="295" fill="#03234B"/><text fill="#FFFFFF" font-family="Arial,Arial_MSFontService,sans-serif" font-weight="400" font-size="24" transform="translate(783.027 389)">GPDMA Channel X<tspan font-size="24" x="23.7734" y="58">Transfer</tspan><tspan font-size="24" x="117.553" y="58">A</tspan><tspan font-size="24" x="138.893" y="58">to</tspan><tspan font-size="24" x="165.56" y="58">B</tspan></text><path d="M453 502 737.836 502 737.836 506 453 506ZM455 510 443 504 455 498Z" fill="#E6007E"/><rect x="491" y="443" width="189" height="61" fill="#E6007E"/><text fill="#FFFFFF" font-family="Arial,Arial_MSFontService,sans-serif" font-weight="400" font-size="24" transform="translate(528.199 468)">Transfer to <tspan font-size="24" x="-2.44672" y="29">Destination</tspan></text><rect x="384" y="523" width="95" height="60" fill="#49B170"/><text fill="#FFFFFF" font-family="Arial,Arial_MSFontService,sans-serif" font-weight="400" font-size="24" transform="translate(401.321 561)">DATA</text></g></svg>