<svg width="1280" height="720" xmlns="http://www.w3.org/2000/svg" xmlns:xlink="http://www.w3.org/1999/xlink" overflow="hidden"><defs><clipPath id="clip0"><rect x="0" y="0" width="1280" height="720"/></clipPath></defs><g clip-path="url(#clip0)"><rect x="0" y="0" width="1280" height="720" fill="#FFFFFF"/><rect x="126" y="405" width="340" height="174" fill="#3CB4E6" fill-opacity="0.501961"/><text fill="#FFFFFF" font-family="Arial,Arial_MSFontService,sans-serif" font-weight="400" font-size="24" transform="translate(174.008 433)">Periph<tspan font-size="24" x="76" y="0">B (ex UART Tx)</tspan></text><rect x="716" y="209" width="340" height="370" fill="#49B170" fill-opacity="0.501961"/><text fill="#FFFFFF" font-family="Arial,Arial_MSFontService,sans-serif" font-weight="400" font-size="24" transform="translate(841.697 237)">GPDMA</text><rect x="149" y="262" width="294" height="98" fill="#FFD200"/><text fill="#FFFFFF" font-family="Arial,Arial_MSFontService,sans-serif" font-weight="400" font-size="24" transform="translate(194.021 319)">Memory(register) A</text><rect x="149" y="458" width="294" height="99" fill="#8C0078"/><text fill="#FFFFFF" font-family="Arial,Arial_MSFontService,sans-serif" font-weight="400" font-size="24" transform="translate(193.358 516)">Memory(register) B</text><rect x="738" y="262" width="295" height="295" fill="#03234B"/><text fill="#FFFFFF" font-family="Arial,Arial_MSFontService,sans-serif" font-weight="400" font-size="24" transform="translate(783.027 389)">GPDMA Channel X<tspan font-size="24" x="23.7734" y="58">Transfer</tspan><tspan font-size="24" x="117.553" y="58">A</tspan><tspan font-size="24" x="138.893" y="58">to</tspan><tspan font-size="24" x="165.56" y="58">B</tspan></text><path d="M443 313 727.836 313 727.836 317 443 317ZM725.836 309 737.836 315 725.836 321Z" fill="#E6007E"/><rect x="504" y="254" width="189" height="61" fill="#E6007E"/><text fill="#FFFFFF" font-family="Arial,Arial_MSFontService,sans-serif" font-weight="400" font-size="24" transform="translate(526.867 279)">Transfer from <tspan font-size="24" x="33.5533" y="29">Source</tspan></text><rect x="399" y="322" width="94" height="61" fill="#49B170"/><text fill="#FFFFFF" font-family="Arial,Arial_MSFontService,sans-serif" font-weight="400" font-size="24" transform="translate(415.764 361)">DATA</text></g></svg>