<svg width="1280" height="720" xmlns="http://www.w3.org/2000/svg" xmlns:xlink="http://www.w3.org/1999/xlink" overflow="hidden"><defs><clipPath id="clip0"><rect x="0" y="0" width="1280" height="720"/></clipPath></defs><g clip-path="url(#clip0)"><rect x="0" y="0" width="1280" height="720" fill="#FFFFFF"/><rect x="360" y="194" width="885" height="279" fill="#49B170" fill-opacity="0.501961"/><text fill="#FFFFFF" font-family="Arial,Arial_MSFontService,sans-serif" font-weight="400" font-size="24" transform="translate(702.538 221)">Channel <tspan font-size="24" x="96" y="0">albitration</tspan></text><rect x="1071" y="277" width="151" height="75" fill="#03234B"/><text fill="#FFFFFF" font-family="Arial,Arial_MSFontService,sans-serif" font-weight="400" font-size="24" transform="translate(1124.07 323)">FPA</text><path d="M391 245 456.599 245C457.704 245 458.599 245.896 458.599 247 458.599 248.105 457.703 249 456.599 249L391 249C389.895 249 389 248.105 389 247 389 245.895 389.895 245 391 245ZM454.599 241 466.599 247 454.599 253Z" fill="#E6007E"/><path d="M391 305 456.599 305C457.704 305 458.599 305.896 458.599 307 458.599 308.105 457.703 309 456.599 309L391 309C389.895 309 389 308.105 389 307 389 305.895 389.895 305 391 305ZM454.599 301 466.599 307 454.599 313Z" fill="#E6007E"/><path d="M443 260 455.68 260C456.784 260 457.68 260.896 457.68 262 457.68 263.105 456.784 264 455.68 264L443 264C441.895 264 441 263.105 441 262 441 260.895 441.895 260 443 260ZM453.68 256 465.68 262 453.68 268Z" fill="#E6007E"/><path d="M443 262 443 307.359" stroke="#E6007E" stroke-width="4" stroke-linecap="round" stroke-miterlimit="8" fill="none" fill-rule="evenodd"/><path d="M391 366 456.599 366C457.704 366 458.599 366.896 458.599 368 458.599 369.105 457.703 370 456.599 370L391 370C389.895 370 389 369.105 389 368 389 366.895 389.895 366 391 366ZM454.599 362 466.599 368 454.599 374Z" fill="#E6007E"/><path d="M0 0 0.000104987 90.7187" stroke="#E6007E" stroke-width="4" stroke-linecap="round" stroke-miterlimit="8" fill="none" fill-rule="evenodd" transform="matrix(1 0 0 -1 428 367.719)"/><path d="M428 275 455.799 275C456.904 275 457.799 275.896 457.799 277 457.799 278.105 456.904 279 455.799 279L428 279C426.895 279 426 278.105 426 277 426 275.895 426.895 275 428 275ZM453.799 271 465.799 277 453.799 283Z" fill="#E6007E"/><path d="M428 320 455.799 320C456.904 320 457.799 320.896 457.799 322 457.799 323.105 456.904 324 455.799 324L428 324C426.895 324 426 323.105 426 322 426 320.895 426.895 320 428 320ZM453.799 316 465.799 322 453.799 328Z" fill="#E6007E"/><path d="M391 418 456.599 418C457.704 418 458.599 418.896 458.599 420 458.599 421.105 457.703 422 456.599 422L391 422C389.895 422 389 421.105 389 420 389 418.895 389.895 418 391 418ZM454.599 414 466.599 420 454.599 426Z" fill="#E6007E"/><path d="M769.743 260.143 836.057 286.669C837.083 287.079 837.581 288.243 837.171 289.268 836.761 290.294 835.597 290.793 834.571 290.383L768.257 263.857C767.232 263.447 766.733 262.283 767.143 261.257 767.553 260.232 768.717 259.733 769.743 260.143ZM835.686 282.212 844.599 292.24 831.229 293.354Z" fill="#E6007E"/><path d="M769 313 834.599 313C835.703 313 836.599 313.896 836.599 315 836.599 316.105 835.703 317 834.599 317L769 317C767.895 317 767 316.105 767 315 767 313.895 767.895 313 769 313ZM832.599 309 844.599 315 832.599 321Z" fill="#E6007E"/><path d="M0.742781-1.85695 67.057 24.6687C68.0825 25.0789 68.5814 26.2429 68.1711 27.2685 67.7609 28.294 66.597 28.7929 65.5714 28.3826L-0.742781 1.85695C-1.76835 1.44673-2.26718 0.282786-1.85695-0.742781-1.44673-1.76835-0.282786-2.26718 0.742781-1.85695ZM66.6856 20.212 75.5989 30.2396 62.2289 31.3538Z" fill="#E6007E" transform="matrix(1 0 0 -1 769 367.24)"/><path d="M769 420 1146.99 420" stroke="#E6007E" stroke-width="4" stroke-linecap="round" stroke-miterlimit="8" fill="none" fill-rule="evenodd"/><path d="M2-3.08608e-06 2.00009 58.039C2.00009 59.1436 1.10466 60.039 9.26426e-05 60.039-1.10448 60.039-1.99991 59.1436-1.99991 58.039L-2 3.08608e-06C-2-1.10457-1.10457-2-3.08608e-06-2 1.10457-2 2-1.10457 2-3.08608e-06ZM6.00009 56.039 0.000104987 68.0391-5.99991 56.0391Z" fill="#E6007E" transform="matrix(1 0 0 -1 1147 420.039)"/><path d="M995 313 1060.6 313C1061.7 313 1062.6 313.896 1062.6 315 1062.6 316.105 1061.7 317 1060.6 317L995 317C993.895 317 993 316.105 993 315 993 313.895 993.895 313 995 313ZM1058.6 309 1070.6 315 1058.6 321Z" fill="#E6007E"/><rect x="466" y="239" width="303" height="45" fill="#03234B"/><text fill="#FFFFFF" font-family="Arial,Arial_MSFontService,sans-serif" font-weight="400" font-size="24" transform="translate(542.654 267)">Queue 0 RRA</text><rect x="466" y="292" width="303" height="45" fill="#03234B"/><text fill="#FFFFFF" font-family="Arial,Arial_MSFontService,sans-serif" font-weight="400" font-size="24" transform="translate(542.654 320)">Queue 1 RRA</text><rect x="466" y="345" width="303" height="45" fill="#03234B"/><text fill="#FFFFFF" font-family="Arial,Arial_MSFontService,sans-serif" font-weight="400" font-size="24" transform="translate(542.654 373)">Queue 2 RRA</text><rect x="466" y="398" width="303" height="45" fill="#03234B"/><text fill="#FFFFFF" font-family="Arial,Arial_MSFontService,sans-serif" font-weight="400" font-size="24" transform="translate(542.654 426)">Queue 3 RRA</text><rect x="844" y="277" width="151" height="75" fill="#03234B"/><text fill="#FFFFFF" font-family="Arial,Arial_MSFontService,sans-serif" font-weight="400" font-size="24" transform="translate(894.383 323)">RRA<tspan fill="#03234B" font-size="24" x="110.532" y="87">High</tspan><tspan fill="#03234B" font-size="24" x="110.532" y="-18">Low</tspan></text><rect x="28" y="103" width="279" height="136" fill="#03234B" fill-opacity="0.501961"/><text fill="#FFFFFF" font-family="Arial,Arial_MSFontService,sans-serif" font-weight="400" font-size="24" transform="translate(123.507 131)">GPDMA</text><rect x="28" y="292" width="279" height="106" fill="#03234B"/><text fill="#FFFFFF" font-family="Arial,Arial_MSFontService,sans-serif" font-weight="400" font-size="24" transform="translate(142.84 353)">AHB</text><rect x="65" y="224" width="46" height="15" fill="#03234B"/><rect x="217" y="224" width="45" height="15" fill="#03234B"/><path d="M90 239 90.0001 281.919 86.0001 281.919 86 239ZM94.0001 279.919 88.0001 291.919 82.0001 279.919Z" fill="#E6007E"/><path d="M241 239 241 281.919 237 281.919 237 239ZM245 279.919 239 291.919 233 279.919Z" fill="#E6007E"/><rect x="217" y="194" width="143" height="30" fill="#49B170" fill-opacity="0.501961"/><path d="M74.7889 193.106 85.4365 214.401 81.8588 216.19 71.2111 194.894ZM88.1198 210.823 88.1198 224.24 77.3867 216.19Z" fill="#E6007E"/><path d="M133.632 192.103 214.864 219.18 213.599 222.975 132.368 195.897ZM214.232 214.753 223.719 224.24 210.437 226.137Z" fill="#E6007E"/><path d="M1.1094-1.6641 38.1483 23.0285 35.9295 26.3567-1.1094 1.6641ZM38.703 18.5909 45.3594 30.2396 32.0466 28.5755Z" fill="#E6007E" transform="matrix(-1 0 0 1 133.359 194)"/><path d="M195.109 192.336 232.148 217.028 229.929 220.357 192.891 195.664ZM232.703 212.591 239.359 224.24 226.047 222.575Z" fill="#E6007E"/><path d="M257 194 257 214.24 253 214.24 253 194ZM261 212.24 255 224.24 249 212.24Z" fill="#E6007E"/><text fill="#03234B" font-family="Arial,Arial_MSFontService,sans-serif" font-weight="400" font-size="24" transform="translate(248.926 267)">Port 1<tspan font-size="24" x="-152.052" y="0">Port 0</tspan></text><rect x="43.5001" y="148.5" width="60" height="46" stroke="#338150" stroke-width="1.33333" stroke-miterlimit="8" fill="#49B170"/><text fill="#FFFFFF" font-family="Arial,Arial_MSFontService,sans-serif" font-weight="400" font-size="24" transform="translate(53.6745 180)">ch1</text><rect x="103.5" y="148.5" width="61" height="46" stroke="#A9005B" stroke-width="1.33333" stroke-miterlimit="8" fill="#E6007E"/><text fill="#FFFFFF" font-family="Arial,Arial_MSFontService,sans-serif" font-weight="400" font-size="24" transform="translate(114.154 180)">ch2</text><rect x="164.5" y="148.5" width="60" height="46" stroke="#2983A9" stroke-width="1.33333" stroke-miterlimit="8" fill="#3CB4E6"/><text fill="#FFFFFF" font-family="Arial,Arial_MSFontService,sans-serif" font-weight="400" font-size="24" transform="translate(174.633 180)">ch3</text><rect x="224.5" y="148.5" width="61" height="46" stroke="#BC9A00" stroke-width="1.33333" stroke-miterlimit="8" fill="#FFD200"/><text fill="#FFFFFF" font-family="Arial,Arial_MSFontService,sans-serif" font-weight="400" font-size="24" transform="translate(235.112 180)">ch4</text></g></svg>