<svg width="1280" height="720" xmlns="http://www.w3.org/2000/svg" xmlns:xlink="http://www.w3.org/1999/xlink" overflow="hidden"><defs><clipPath id="clip0"><rect x="0" y="0" width="1280" height="720"/></clipPath></defs><g clip-path="url(#clip0)"><rect x="0" y="0" width="1280" height="720" fill="#FFFFFF"/><rect x="375" y="300" width="409" height="158" fill="#49B170" fill-opacity="0.501961"/><path d="M0.0328438-1.99973 35.3936-1.41896C36.498-1.40082 37.3786-0.490809 37.3604 0.613612 37.3423 1.71803 36.4323 2.59864 35.3279 2.5805L-0.0328438 1.99973C-1.13726 1.98159-2.01787 1.07158-1.99973-0.0328438-1.98159-1.13726-1.07158-2.01787 0.0328438-1.99973ZM33.4595-5.45127 45.3594 0.744987 33.2625 6.54711Z" fill="#E6007E" transform="matrix(1 0 0 -1 723 382.745)"/><rect x="421.5" y="360.5" width="302" height="45" stroke="#03234B" stroke-width="1.33333" stroke-miterlimit="8" fill="#03234B"/><text fill="#FFFFFF" font-family="Arial,Arial_MSFontService,sans-serif" font-weight="400" font-size="24" transform="translate(430.363 388)">Queue RRA</text><rect x="602.5" y="360.5" width="61" height="45" stroke="#338150" stroke-width="1.33333" stroke-miterlimit="8" fill="#49B170"/><text fill="#FFFFFF" font-family="Arial,Arial_MSFontService,sans-serif" font-weight="400" font-size="24" transform="translate(613.107 391)">ch1<tspan fill="#03234B" font-size="24" x="-305.592" y="-20">request</tspan></text><path d="M298 381 410.848 381C411.953 381 412.848 381.896 412.848 383 412.848 384.105 411.953 385 410.848 385L298 385C296.895 385 296 384.105 296 383 296 381.895 296.895 381 298 381ZM408.848 377 420.848 383 408.848 389Z" fill="#E6007E"/><path d="M634 345 634 350.12 630 350.12 630 345ZM638 348.12 632 360.12 626 348.12Z" fill="#E6007E"/><rect x="663.5" y="360.5" width="60" height="45" stroke="#BC9A00" stroke-width="1.33333" stroke-miterlimit="8" fill="#FFD200"/><text fill="#FFFFFF" font-family="Arial,Arial_MSFontService,sans-serif" font-weight="400" font-size="24" transform="translate(673.586 391)">ch0</text><rect x="769.5" y="360.5" width="60" height="45" stroke="#338150" stroke-width="1.33333" stroke-miterlimit="8" fill="#49B170"/><text fill="#FFFFFF" font-family="Arial,Arial_MSFontService,sans-serif" font-weight="400" font-size="24" transform="translate(779.424 391)">ch1</text></g></svg>