<svg width="1280" height="720" xmlns="http://www.w3.org/2000/svg" xmlns:xlink="http://www.w3.org/1999/xlink" overflow="hidden"><defs><clipPath id="clip0"><rect x="0" y="0" width="1280" height="720"/></clipPath></defs><g clip-path="url(#clip0)"><rect x="0" y="0" width="1280" height="720" fill="#FFFFFF"/><rect x="103" y="277" width="983" height="227" fill="#49B170" fill-opacity="0.501961"/><path d="M186 305 251.599 305C252.704 305 253.599 305.896 253.599 307 253.599 308.105 252.704 309 251.599 309L186 309C184.895 309 184 308.105 184 307 184 305.895 184.895 305 186 305ZM249.599 301 261.599 307 249.599 313Z" fill="#E6007E"/><path d="M186 381 251.599 381C252.704 381 253.599 381.896 253.599 383 253.599 384.105 252.704 385 251.599 385L186 385C184.895 385 184 384.105 184 383 184 381.895 184.895 381 186 381ZM249.599 377 261.599 383 249.599 389Z" fill="#E6007E"/><path d="M239 320 251.68 320C252.784 320 253.68 320.896 253.68 322 253.68 323.105 252.784 324 251.68 324L239 324C237.895 324 237 323.105 237 322 237 320.895 237.895 320 239 320ZM249.68 316 261.68 322 249.68 328Z" fill="#E6007E"/><path d="M239 322 239 382.479" stroke="#E6007E" stroke-width="4" stroke-linecap="round" stroke-miterlimit="8" fill="none" fill-rule="evenodd"/><path d="M186 456 251.599 456C252.704 456 253.599 456.896 253.599 458 253.599 459.105 252.704 460 251.599 460L186 460C184.895 460 184 459.105 184 458 184 456.895 184.895 456 186 456ZM249.599 452 261.599 458 249.599 464Z" fill="#E6007E"/><path d="M0 0 0.000104987 120.958" stroke="#E6007E" stroke-width="4" stroke-linecap="round" stroke-miterlimit="8" fill="none" fill-rule="evenodd" transform="matrix(1 0 0 -1 224 457.958)"/><path d="M224 335 251.799 335C252.904 335 253.799 335.896 253.799 337 253.799 338.105 252.904 339 251.799 339L224 339C222.895 339 222 338.105 222 337 222 335.895 222.895 335 224 335ZM249.799 331 261.799 337 249.799 343Z" fill="#E6007E"/><path d="M224 396 251.799 396C252.904 396 253.799 396.896 253.799 398 253.799 399.105 252.904 400 251.799 400L224 400C222.895 400 222 399.105 222 398 222 396.895 222.895 396 224 396ZM249.799 392 261.799 398 249.799 404Z" fill="#E6007E"/><path d="M564.743 320.143 575.885 324.6C576.91 325.01 577.409 326.174 576.999 327.199 576.588 328.225 575.424 328.724 574.399 328.314L563.257 323.857C562.232 323.447 561.733 322.283 562.143 321.257 562.553 320.232 563.717 319.733 564.743 320.143ZM590.74 330.542 601.882 334.999C602.907 335.409 603.406 336.573 602.996 337.598 602.586 338.624 601.422 339.123 600.396 338.713L589.255 334.256C588.229 333.846 587.73 332.682 588.14 331.656 588.551 330.631 589.715 330.132 590.74 330.542ZM616.737 340.941 627.879 345.398C628.905 345.808 629.404 346.972 628.993 347.997 628.583 349.023 627.419 349.522 626.394 349.112L615.252 344.655C614.226 344.245 613.728 343.081 614.138 342.055 614.548 341.03 615.712 340.531 616.737 340.941ZM630.686 342.212 639.599 352.24 626.229 353.354Z" fill="#E6007E"/><path d="M0.392232-1.96116 12.1592 0.392232C13.2423 0.608856 13.9448 1.66251 13.7281 2.74563 13.5115 3.82874 12.4579 4.53118 11.3747 4.31455L-0.392232 1.96116C-1.47535 1.74454-2.17778 0.690887-1.96116-0.392232-1.74454-1.47535-0.690887-2.17778 0.392232-1.96116ZM27.8485 3.53009 39.6155 5.88348C40.6986 6.10011 41.401 7.15376 41.1844 8.23688 40.9678 9.32 39.9141 10.0224 38.831 9.80581L27.064 7.45241C25.9809 7.23579 25.2785 6.18214 25.4951 5.09902 25.7117 4.0159 26.7654 3.31347 27.8485 3.53009ZM55.3047 9.02134 66.1853 11.1975C67.2685 11.4141 67.9709 12.4677 67.7543 13.5509 67.5377 14.634 66.484 15.3364 65.4009 15.1198L54.5203 12.9437C53.4372 12.727 52.7347 11.6734 52.9514 10.5903 53.168 9.50715 54.2216 8.80472 55.3047 9.02134ZM65.0087 6.88291 75.5989 15.1198 62.6553 18.6499Z" fill="#464650" transform="matrix(1 0 0 -1 564 390.12)"/><path d="M1.24939-1.56174 10.6198 5.9346C11.4823 6.62462 11.6222 7.88321 10.9322 8.74573 10.2421 9.60825 8.98356 9.7481 8.12103 9.05808L-1.24939 1.56174C-2.11191 0.871718-2.25176-0.386866-1.56174-1.24939-0.871718-2.11191 0.386866-2.25176 1.24939-1.56174ZM23.1137 15.9297 32.4841 23.4261C33.3467 24.1161 33.4865 25.3747 32.7965 26.2372 32.1065 27.0997 30.8479 27.2396 29.9854 26.5495L20.6149 19.0532C19.7524 18.3632 19.6126 17.1046 20.3026 16.2421 20.9926 15.3795 22.2512 15.2397 23.1137 15.9297ZM44.978 33.4212 54.3485 40.9175C55.211 41.6075 55.3508 42.8661 54.6608 43.7287 53.9708 44.5912 52.7122 44.731 51.8497 44.041L42.4793 36.5447C41.6167 35.8546 41.4769 34.5961 42.1669 33.7335 42.8569 32.871 44.1155 32.7312 44.978 33.4212ZM66.8424 50.9126 69.0396 52.6705C69.9022 53.3605 70.042 54.6191 69.352 55.4816 68.662 56.3441 67.4034 56.484 66.5409 55.7939L64.3436 54.0361C63.4811 53.3461 63.3412 52.0875 64.0312 51.225 64.7213 50.3625 65.9798 50.2226 66.8424 50.9126ZM69.9767 48.2976 75.5989 60.4792 62.4804 57.668Z" fill="#464650" transform="matrix(1 0 0 -1 564 458.479)"/><path d="M791 373 856.599 373C857.703 373 858.599 373.896 858.599 375 858.599 376.105 857.703 377 856.599 377L791 377C789.895 377 789 376.105 789 375 789 373.895 789.895 373 791 373ZM854.599 369 866.599 375 854.599 381Z" fill="#E6007E"/><rect x="262" y="300" width="302" height="45" fill="#03234B"/><text fill="#FFFFFF" font-family="Arial,Arial_MSFontService,sans-serif" font-weight="400" font-size="24" transform="translate(271.605 327)">Queue 0 RRA</text><rect x="262" y="368" width="302" height="45" fill="#03234B"/><text fill="#FFFFFF" font-family="Arial,Arial_MSFontService,sans-serif" font-weight="400" font-size="24" transform="translate(271.605 395)">Queue 1 RRA</text><rect x="262" y="436" width="302" height="45" fill="#03234B"/><text fill="#FFFFFF" font-family="Arial,Arial_MSFontService,sans-serif" font-weight="400" font-size="24" transform="translate(271.605 463)">Queue 2 RRA</text><rect x="640" y="337" width="151" height="76" fill="#03234B"/><text fill="#FFFFFF" font-family="Arial,Arial_MSFontService,sans-serif" font-weight="400" font-size="24" transform="translate(649.6 384)">RRA<tspan fill="#03234B" font-size="24" x="151.198" y="-19">Low</tspan></text><path d="M476 284 476 289.12 472 289.12 472 284ZM480 287.12 474 299.12 468 287.12Z" fill="#E6007E"/><path d="M536 352 536 357.12 532 357.12 532 352ZM540 355.12 534 367.12 528 355.12Z" fill="#E6007E"/><rect x="504.5" y="300.5" width="60" height="45" stroke="#2983A9" stroke-width="1.33333" stroke-miterlimit="8" fill="#3CB4E6"/><text fill="#FFFFFF" font-family="Arial,Arial_MSFontService,sans-serif" font-weight="400" font-size="24" transform="translate(514.828 331)">ch1</text><rect x="504.5" y="368.5" width="60" height="45" stroke="#2983A9" stroke-width="1.33333" stroke-miterlimit="8" fill="#3CB4E6"/><text fill="#FFFFFF" font-family="Arial,Arial_MSFontService,sans-serif" font-weight="400" font-size="24" transform="translate(514.828 399)">ch1</text><rect x="443.5" y="300.5" width="61" height="45" stroke="#BC9A00" stroke-width="1.33333" stroke-miterlimit="8" fill="#FFD200"/><text fill="#FFFFFF" font-family="Arial,Arial_MSFontService,sans-serif" font-weight="400" font-size="24" transform="translate(454.349 331)">ch0</text><rect x="928.5" y="352.5" width="60" height="46" stroke="#2983A9" stroke-width="1.33333" stroke-miterlimit="8" fill="#3CB4E6"/><text fill="#FFFFFF" font-family="Arial,Arial_MSFontService,sans-serif" font-weight="400" font-size="24" transform="translate(938.562 384)">ch1</text><rect x="988.5" y="352.5" width="60.9999" height="46" stroke="#2983A9" stroke-width="1.33333" stroke-miterlimit="8" fill="#3CB4E6"/><text fill="#FFFFFF" font-family="Arial,Arial_MSFontService,sans-serif" font-weight="400" font-size="24" transform="translate(999.041 384)">ch1</text><rect x="1049.5" y="352.5" width="60" height="46" stroke="#2983A9" stroke-width="1.33333" stroke-miterlimit="8" fill="#3CB4E6"/><text fill="#FFFFFF" font-family="Arial,Arial_MSFontService,sans-serif" font-weight="400" font-size="24" transform="translate(1059.52 384)">ch1</text><rect x="867.5" y="352.5" width="60" height="46" stroke="#BC9A00" stroke-width="1.33333" stroke-miterlimit="8" fill="#FFD200"/><text fill="#FFFFFF" font-family="Arial,Arial_MSFontService,sans-serif" font-weight="400" font-size="24" transform="translate(877.703 384)">ch0</text></g></svg>