<svg width="1280" height="720" xmlns="http://www.w3.org/2000/svg" xmlns:xlink="http://www.w3.org/1999/xlink" overflow="hidden"><defs><clipPath id="clip0"><rect x="0" y="0" width="1280" height="720"/></clipPath></defs><g clip-path="url(#clip0)"><rect x="0" y="0" width="1280" height="720" fill="#FFFFFF"/><rect x="209" y="300" width="726" height="158" fill="#49B170" fill-opacity="0.501961"/><path d="M557 428 708.198 428" stroke="#E6007E" stroke-width="4" stroke-linecap="round" stroke-miterlimit="8" fill="none" fill-rule="evenodd"/><path d="M2-4.62912e-06 2.00008 35.3594C2.00008 36.4639 1.10466 37.3594 8.64704e-05 37.3594-1.10448 37.3594-1.99992 36.4639-1.99992 35.3594L-2 4.62912e-06C-2-1.10456-1.10457-2-4.62912e-06-2 1.10456-2 2-1.10457 2-4.62912e-06ZM6.00008 33.3594 0.000104987 45.3594-5.99992 33.3594Z" fill="#E6007E" transform="matrix(1 0 0 -1 708 428.359)"/><path d="M557 343 622.599 343C623.703 343 624.599 343.896 624.599 345 624.599 346.105 623.703 347 622.599 347L557 347C555.895 347 555 346.105 555 345 555 343.895 555.895 343 557 343ZM620.599 339 632.599 345 620.599 351Z" fill="#E6007E"/><rect x="254.5" y="405.5" width="303" height="46" stroke="#03234B" stroke-width="1.33333" stroke-miterlimit="8" fill="#03234B"/><text fill="#FFFFFF" font-family="Arial,Arial_MSFontService,sans-serif" font-weight="400" font-size="24" transform="translate(264.045 433)">Queue <tspan font-size="24" x="78.6667" y="0">3 RRA</tspan></text><rect x="406.5" y="307.5" width="151" height="76" stroke="#03234B" stroke-width="1.33333" stroke-miterlimit="8" fill="#03234B"/><text fill="#FFFFFF" font-family="Arial,Arial_MSFontService,sans-serif" font-weight="400" font-size="24" transform="translate(415.243 353)">RRA<tspan fill="#03234B" font-size="24" x="151.198" y="64">High</tspan><tspan fill="#03234B" font-size="24" x="151.198" y="-18">Low</tspan></text><path d="M784 343 849.599 343C850.703 343 851.599 343.896 851.599 345 851.599 346.105 850.703 347 849.599 347L784 347C782.895 347 782 346.105 782 345 782 343.895 782.895 343 784 343ZM847.599 339 859.599 345 847.599 351Z" fill="#E6007E"/><rect x="496.5" y="322.5" width="61" height="46" stroke="#650056" stroke-width="1.33333" stroke-miterlimit="8" fill="#8C0078"/><text fill="#FFFFFF" font-family="Arial,Arial_MSFontService,sans-serif" font-weight="400" font-size="24" transform="translate(507.268 353)">ch3</text><rect x="632.5" y="307.5" width="152" height="76" stroke="#03234B" stroke-width="1.33333" stroke-miterlimit="8" fill="#03234B"/><text fill="#FFFFFF" font-family="Arial,Arial_MSFontService,sans-serif" font-weight="400" font-size="24" transform="translate(685.596 335)">FPA</text><path d="M708 343 773.599 343C774.703 343 775.599 343.896 775.599 345 775.599 346.105 774.703 347 773.599 347L708 347C706.895 347 706 346.105 706 345 706 343.895 706.895 343 708 343ZM771.599 339 783.599 345 771.599 351Z" fill="#E6007E"/><path d="M0 0 0.000104987 36.8239" stroke="#E6007E" stroke-width="4" stroke-miterlimit="8" stroke-dasharray="4 4" fill="none" fill-rule="evenodd" transform="matrix(1 0 0 -1 708 382.824)"/><path d="M632 345 707.599 345" stroke="#E6007E" stroke-width="4" stroke-miterlimit="8" fill="none" fill-rule="evenodd"/><text fill="#03234B" font-family="Arial,Arial_MSFontService,sans-serif" font-weight="400" font-size="24" transform="translate(46.4389 417)">Very High request</text><path d="M37 426 244.606 426C245.711 426 246.606 426.896 246.606 428 246.606 429.105 245.711 430 244.606 430L37 430C35.8954 430 35 429.105 35 428 35 426.895 35.8954 426 37 426ZM242.606 422 254.606 428 242.606 434Z" fill="#E6007E"/><rect x="436.5" y="405.5" width="60" height="46" stroke="#464650" stroke-width="1.33333" stroke-miterlimit="8" fill="#464650"/><text fill="#FFFFFF" font-family="Arial,Arial_MSFontService,sans-serif" font-weight="400" font-size="24" transform="translate(446.789 437)">ch1</text><rect x="496.5" y="405.5" width="61" height="46" stroke="#464650" stroke-width="1.33333" stroke-miterlimit="8" fill="#464650"/><text fill="#FFFFFF" font-family="Arial,Arial_MSFontService,sans-serif" font-weight="400" font-size="24" transform="translate(507.268 437)">ch0</text><path d="M529 390 529 395.12 525 395.12 525 390ZM533 393.12 527 405.12 521 393.12Z" fill="#E6007E"/><path d="M307 524.834C307 517.194 313.194 511 320.834 511L518.75 511 503.477 458.555 609.5 511 656.166 511C663.806 511 670 517.194 670 524.834L670 524.833 670 524.833 670 545.583 670 580.166C670 587.806 663.806 594 656.166 594L609.5 594 518.75 594 518.75 594 320.834 594C313.194 594 307 587.806 307 580.166L307 545.583 307 524.833 307 524.833Z" fill="#3CB4E6" fill-rule="evenodd"/><text fill="#FFFFFF" font-family="Arial,Arial_MSFontService,sans-serif" font-weight="400" font-size="24" transform="translate(334.135 547)">No active request from ch0 &amp; <tspan font-size="24" x="135.333" y="29">ch1</tspan></text></g></svg>