<svg width="1280" height="720" xmlns="http://www.w3.org/2000/svg" xmlns:xlink="http://www.w3.org/1999/xlink" overflow="hidden"><defs><clipPath id="clip0"><rect x="0" y="0" width="1280" height="720"/></clipPath></defs><g clip-path="url(#clip0)"><rect x="0" y="0" width="1280" height="720" fill="#FFFFFF"/><rect x="209" y="300" width="726" height="158" fill="#49B170" fill-opacity="0.501961"/><path d="M557 428 708.198 428" stroke="#E6007E" stroke-width="4" stroke-linecap="round" stroke-miterlimit="8" fill="none" fill-rule="evenodd"/><path d="M2-4.62912e-06 2.00008 35.3594C2.00008 36.4639 1.10466 37.3594 8.64704e-05 37.3594-1.10448 37.3594-1.99992 36.4639-1.99992 35.3594L-2 4.62912e-06C-2-1.10456-1.10457-2-4.62912e-06-2 1.10456-2 2-1.10457 2-4.62912e-06ZM6.00008 33.3594 0.000104987 45.3594-5.99992 33.3594Z" fill="#E6007E" transform="matrix(1 0 0 -1 708 428.359)"/><path d="M557 343 622.599 343C623.703 343 624.599 343.896 624.599 345 624.599 346.105 623.703 347 622.599 347L557 347C555.895 347 555 346.105 555 345 555 343.895 555.895 343 557 343ZM620.599 339 632.599 345 620.599 351Z" fill="#E6007E"/><rect x="254.5" y="405.5" width="303" height="46" stroke="#03234B" stroke-width="1.33333" stroke-miterlimit="8" fill="#03234B"/><text fill="#FFFFFF" font-family="Arial,Arial_MSFontService,sans-serif" font-weight="400" font-size="24" transform="translate(264.045 433)">Queue <tspan font-size="24" x="78.6667" y="0">3 RRA</tspan></text><rect x="406.5" y="307.5" width="151" height="76" stroke="#03234B" stroke-width="1.33333" stroke-miterlimit="8" fill="#03234B"/><text fill="#FFFFFF" font-family="Arial,Arial_MSFontService,sans-serif" font-weight="400" font-size="24" transform="translate(415.243 353)">RRA<tspan fill="#03234B" font-size="24" x="151.198" y="64">High</tspan><tspan fill="#03234B" font-size="24" x="151.198" y="-18">Low</tspan></text><path d="M784 343 849.599 343C850.703 343 851.599 343.896 851.599 345 851.599 346.105 850.703 347 849.599 347L784 347C782.895 347 782 346.105 782 345 782 343.895 782.895 343 784 343ZM847.599 339 859.599 345 847.599 351Z" fill="#E6007E"/><rect x="632.5" y="307.5" width="152" height="76" stroke="#03234B" stroke-width="1.33333" stroke-miterlimit="8" fill="#03234B"/><text fill="#FFFFFF" font-family="Arial,Arial_MSFontService,sans-serif" font-weight="400" font-size="24" transform="translate(685.596 335)">FPA</text><path d="M708 343 708.004 343C709.109 343 710.004 343.895 710.004 345 710.004 346.105 709.109 347 708.004 347L708 347C706.895 347 706 346.105 706 345 706 343.895 706.895 343 708 343ZM716.004 343 716.008 343C717.113 343 718.008 343.895 718.008 345 718.008 346.105 717.113 347 716.008 347L716.004 347C714.899 347 714.004 346.105 714.004 345 714.004 343.895 714.899 343 716.004 343ZM724.008 343 724.012 343C725.117 343 726.012 343.895 726.012 345 726.012 346.105 725.117 347 724.012 347L724.008 347C722.903 347 722.008 346.105 722.008 345 722.008 343.895 722.903 343 724.008 343ZM732.012 343 732.016 343C733.121 343 734.016 343.895 734.016 345 734.016 346.105 733.121 347 732.016 347L732.012 347C730.907 347 730.012 346.105 730.012 345 730.012 343.895 730.907 343 732.012 343ZM740.016 343 740.02 343C741.125 343 742.02 343.895 742.02 345 742.02 346.105 741.125 347 740.02 347L740.016 347C738.911 347 738.016 346.105 738.016 345 738.016 343.895 738.911 343 740.016 343ZM748.02 343 748.024 343C749.129 343 750.024 343.895 750.024 345 750.024 346.105 749.129 347 748.024 347L748.02 347C746.915 347 746.02 346.105 746.02 345 746.02 343.895 746.915 343 748.02 343ZM756.024 343 756.028 343C757.133 343 758.028 343.896 758.028 345 758.028 346.105 757.133 347 756.028 347L756.024 347C754.919 347 754.024 346.105 754.024 345 754.024 343.896 754.919 343 756.024 343ZM764.028 343 764.032 343C765.137 343 766.032 343.896 766.032 345 766.032 346.105 765.137 347 764.032 347L764.028 347C762.923 347 762.028 346.105 762.028 345 762.028 343.896 762.923 343 764.028 343ZM772.032 343 772.036 343C773.141 343 774.036 343.896 774.036 345 774.036 346.105 773.141 347 772.036 347L772.032 347C770.927 347 770.032 346.105 770.032 345 770.032 343.896 770.927 343 772.032 343ZM771.599 339 783.599 345 771.599 351Z" fill="#E6007E"/><path d="M0 0 0.000104987 36.8239" stroke="#E6007E" stroke-width="4" stroke-miterlimit="8" stroke-dasharray="4 4" fill="none" fill-rule="evenodd" transform="matrix(1 0 0 -1 708 382.824)"/><path d="M632 345 707.599 345" stroke="#E6007E" stroke-width="4" stroke-miterlimit="8" stroke-dasharray="4 4" fill="none" fill-rule="evenodd"/><text fill="#03234B" font-family="Arial,Arial_MSFontService,sans-serif" font-weight="400" font-size="24" transform="translate(46.4389 417)">Very High request</text><path d="M37 426 244.606 426C245.711 426 246.606 426.896 246.606 428 246.606 429.105 245.711 430 244.606 430L37 430C35.8954 430 35 429.105 35 428 35 426.895 35.8954 426 37 426ZM242.606 422 254.606 428 242.606 434Z" fill="#E6007E"/></g></svg>